<svg width="129" height="32" viewBox="0 0 129 32" fill="none" xmlns="http://www.w3.org/2000/svg">
<path d="M52.6926 25.0619C51.3272 25.0619 50.004 24.8681 48.7229 24.4804C47.4587 24.0927 46.4558 23.5786 45.7141 22.938L46.8519 20.3843C47.5767 20.9574 48.4617 21.4294 49.5068 21.8002C50.5687 22.1542 51.6307 22.3312 52.6926 22.3312C54.0074 22.3312 54.985 22.1205 55.6256 21.6991C56.283 21.2777 56.6117 20.7214 56.6117 20.0303C56.6117 19.5246 56.4262 19.1117 56.0554 18.7914C55.7014 18.4543 55.2463 18.193 54.6901 18.0076C54.1338 17.8222 53.3753 17.6115 52.4145 17.3755C51.066 17.0552 49.9703 16.7349 49.1275 16.4147C48.3015 16.0944 47.5852 15.5971 46.9783 14.9229C46.3884 14.2318 46.0934 13.3047 46.0934 12.1416C46.0934 11.1639 46.3546 10.279 46.8772 9.48675C47.4166 8.67765 48.2173 8.03711 49.2792 7.56514C50.358 7.09317 51.6728 6.85718 53.2236 6.85718C54.3024 6.85718 55.3643 6.99203 56.4094 7.26173C57.4545 7.53143 58.3563 7.91912 59.1148 8.42481L58.0782 10.9785C57.3028 10.5234 56.4937 10.1779 55.6509 9.94187C54.8081 9.70588 53.9905 9.58789 53.1983 9.58789C51.9003 9.58789 50.9311 9.80702 50.2906 10.2453C49.6669 10.6835 49.3551 11.2651 49.3551 11.9899C49.3551 12.4956 49.532 12.9086 49.886 13.2288C50.2569 13.5491 50.7204 13.8019 51.2767 13.9874C51.8329 14.1728 52.5915 14.3835 53.5523 14.6195C54.867 14.9229 55.9458 15.2432 56.7887 15.5803C57.6315 15.9005 58.3479 16.3978 58.9378 17.0721C59.5447 17.7463 59.8481 18.6565 59.8481 19.8028C59.8481 20.7804 59.5784 21.6654 59.039 22.4576C58.5164 23.2499 57.7158 23.882 56.637 24.354C55.5582 24.8259 54.2434 25.0619 52.6926 25.0619Z" fill="white"/>
<path d="M70.2881 11.1555C71.6029 11.1555 72.7744 11.4421 73.8027 12.0152C74.8477 12.5883 75.6653 13.3974 76.2552 14.4425C76.8452 15.4876 77.1402 16.6928 77.1402 18.0581C77.1402 19.4235 76.8452 20.6372 76.2552 21.6991C75.6653 22.7442 74.8477 23.5533 73.8027 24.1264C72.7744 24.6995 71.6029 24.9861 70.2881 24.9861C68.4677 24.9861 67.0264 24.3792 65.9645 23.1656V29.7142H62.804V11.3072H65.8128V13.0771C66.3353 12.4366 66.9759 11.9562 67.7344 11.6359C68.5098 11.3157 69.361 11.1555 70.2881 11.1555ZM69.9341 22.2806C71.0972 22.2806 72.0496 21.8929 72.7913 21.1176C73.5498 20.3422 73.9291 19.3224 73.9291 18.0581C73.9291 16.7939 73.5498 15.7741 72.7913 14.9987C72.0496 14.2234 71.0972 13.8357 69.9341 13.8357C69.1756 13.8357 68.4929 14.0127 67.8861 14.3666C67.2793 14.7038 66.7989 15.1926 66.4449 15.8331C66.0909 16.4737 65.9139 17.2153 65.9139 18.0581C65.9139 18.901 66.0909 19.6426 66.4449 20.2832C66.7989 20.9237 67.2793 21.421 67.8861 21.7749C68.4929 22.1121 69.1756 22.2806 69.9341 22.2806Z" fill="white"/>
<path d="M85.1227 11.1555C87.1118 11.1555 88.6288 11.6359 89.6739 12.5967C90.7359 13.5407 91.2668 14.9735 91.2668 16.8951V24.8091H88.2833V23.1656C87.8956 23.7556 87.3393 24.2107 86.6145 24.5309C85.9066 24.8344 85.0469 24.9861 84.0355 24.9861C83.0241 24.9861 82.1392 24.8175 81.3807 24.4804C80.6221 24.1264 80.0322 23.646 79.6107 23.0392C79.2062 22.4155 79.0039 21.716 79.0039 20.9406C79.0039 19.7269 79.4506 18.7577 80.344 18.0329C81.2542 17.2912 82.6786 16.9204 84.6171 16.9204H88.1063V16.7181C88.1063 15.7741 87.8197 15.0493 87.2466 14.5436C86.6904 14.0379 85.856 13.7851 84.7435 13.7851C83.9849 13.7851 83.2348 13.9031 82.4932 14.1391C81.7683 14.3751 81.1531 14.7038 80.6474 15.1252L79.4085 12.8243C80.1164 12.2849 80.9677 11.8719 81.9622 11.5854C82.9567 11.2988 84.0102 11.1555 85.1227 11.1555ZM84.6929 22.6852C85.4851 22.6852 86.1847 22.5082 86.7915 22.1542C87.4152 21.7834 87.8534 21.2608 88.1063 20.5866V19.019H84.8446C83.0241 19.019 82.1139 19.6173 82.1139 20.8141C82.1139 21.3873 82.3415 21.8424 82.7966 22.1795C83.2517 22.5166 83.8838 22.6852 84.6929 22.6852Z" fill="white"/>
<path d="M101.641 24.9861C100.242 24.9861 98.9863 24.6911 97.8737 24.1011C96.7612 23.5111 95.8931 22.6936 95.2695 21.6485C94.6458 20.5866 94.3339 19.3898 94.3339 18.0581C94.3339 16.7265 94.6458 15.5381 95.2695 14.4931C95.8931 13.448 96.7528 12.6304 97.8485 12.0405C98.961 11.4505 100.225 11.1555 101.641 11.1555C102.973 11.1555 104.136 11.4252 105.13 11.9646C106.142 12.504 106.9 13.2794 107.406 14.2908L104.979 15.7067C104.591 15.083 104.102 14.6195 103.512 14.3161C102.939 13.9958 102.307 13.8357 101.616 13.8357C100.436 13.8357 99.4582 14.2234 98.6828 14.9987C97.9075 15.7573 97.5198 16.7771 97.5198 18.0581C97.5198 19.3392 97.899 20.3675 98.6576 21.1428C99.433 21.9014 100.419 22.2806 101.616 22.2806C102.307 22.2806 102.939 22.1289 103.512 21.8255C104.102 21.5052 104.591 21.0333 104.979 20.4096L107.406 21.8255C106.883 22.8369 106.116 23.6207 105.105 24.177C104.111 24.7164 102.956 24.9861 101.641 24.9861Z" fill="white"/>
<path d="M122.633 18.134C122.633 18.3531 122.616 18.665 122.583 19.0695H111.989C112.174 20.064 112.654 20.8563 113.43 21.4462C114.222 22.0194 115.2 22.3059 116.363 22.3059C117.846 22.3059 119.068 21.8171 120.029 20.8394L121.723 22.7863C121.116 23.5111 120.349 24.059 119.422 24.4298C118.495 24.8006 117.45 24.9861 116.287 24.9861C114.804 24.9861 113.497 24.6911 112.368 24.1011C111.238 23.5111 110.362 22.6936 109.738 21.6485C109.131 20.5866 108.828 19.3898 108.828 18.0581C108.828 16.7434 109.123 15.5634 109.713 14.5183C110.32 13.4564 111.154 12.6304 112.216 12.0405C113.278 11.4505 114.475 11.1555 115.806 11.1555C117.121 11.1555 118.293 11.4505 119.321 12.0405C120.366 12.6136 121.175 13.4311 121.748 14.4931C122.338 15.5381 122.633 16.7518 122.633 18.134ZM115.806 13.684C114.795 13.684 113.935 13.9874 113.227 14.5942C112.536 15.1842 112.115 15.9764 111.963 16.9709H119.624C119.49 15.9933 119.077 15.201 118.385 14.5942C117.694 13.9874 116.835 13.684 115.806 13.684Z" fill="white"/>
<path d="M126.681 24.9861C126.107 24.9861 125.619 24.7922 125.214 24.4045C124.809 24 124.607 23.4943 124.607 22.8875C124.607 22.2638 124.801 21.7581 125.189 21.3704C125.593 20.9827 126.091 20.7889 126.681 20.7889C127.27 20.7889 127.759 20.9827 128.147 21.3704C128.552 21.7581 128.754 22.2638 128.754 22.8875C128.754 23.4943 128.552 24 128.147 24.4045C127.742 24.7922 127.254 24.9861 126.681 24.9861Z" fill="white"/>
<circle cx="7.38459" cy="7.38471" r="7.38459" fill="white"/>
<circle cx="24.6154" cy="7.38459" r="7.38459" fill="white"/>
<circle cx="7.38459" cy="24.6154" r="7.38459" fill="white"/>
<circle cx="24.6154" cy="24.6154" r="7.38459" fill="white"/>
</svg>
