<svg width="97" height="24" viewBox="0 0 97 24" fill="none" xmlns="http://www.w3.org/2000/svg">
<path d="M39.5194 18.7964C38.4954 18.7964 37.503 18.651 36.5422 18.3602C35.594 18.0694 34.8418 17.6839 34.2856 17.2035L35.1389 15.2882C35.6825 15.718 36.3463 16.072 37.1301 16.3501C37.9265 16.6156 38.723 16.7483 39.5194 16.7483C40.5055 16.7483 41.2388 16.5903 41.7192 16.2743C42.2122 15.9582 42.4588 15.541 42.4588 15.0227C42.4588 14.6434 42.3197 14.3337 42.0416 14.0935C41.7761 13.8406 41.4347 13.6447 41.0175 13.5056C40.6004 13.3666 40.0315 13.2085 39.3108 13.0315C38.2995 12.7913 37.4777 12.5511 36.8456 12.3109C36.2262 12.0707 35.6889 11.6978 35.2337 11.1921C34.7913 10.6738 34.57 9.97846 34.57 9.10614C34.57 8.3729 34.766 7.70918 35.1579 7.115C35.5624 6.50818 36.1629 6.02777 36.9594 5.67379C37.7685 5.31981 38.7546 5.14282 39.9177 5.14282C40.7268 5.14282 41.5232 5.24396 42.307 5.44624C43.0909 5.64851 43.7672 5.93928 44.3361 6.31855L43.5586 8.23383C42.9771 7.8925 42.3703 7.63333 41.7381 7.45634C41.106 7.27935 40.4929 7.19085 39.8987 7.19085C38.9253 7.19085 38.1983 7.3552 37.7179 7.6839C37.2502 8.0126 37.0163 8.44875 37.0163 8.99237C37.0163 9.37163 37.149 9.68136 37.4145 9.92156C37.6927 10.1618 38.0403 10.3514 38.4575 10.4905C38.8747 10.6295 39.4436 10.7876 40.1642 10.9645C41.1503 11.1921 41.9594 11.4323 42.5915 11.6851C43.2236 11.9254 43.7609 12.2983 44.2034 12.804C44.6585 13.3097 44.886 13.9923 44.886 14.852C44.886 15.5853 44.6838 16.249 44.2792 16.8432C43.8873 17.4373 43.2868 17.9114 42.4777 18.2654C41.6686 18.6194 40.6825 18.7964 39.5194 18.7964Z" fill="black"/>
<path d="M52.7161 8.36658C53.7022 8.36658 54.5808 8.58149 55.352 9.01133C56.1358 9.44116 56.749 10.048 57.1914 10.8318C57.6339 11.6156 57.8551 12.5195 57.8551 13.5435C57.8551 14.5676 57.6339 15.4778 57.1914 16.2743C56.749 17.0581 56.1358 17.6649 55.352 18.0947C54.5808 18.5246 53.7022 18.7395 52.7161 18.7395C51.3507 18.7395 50.2698 18.2844 49.4734 17.3741V22.2856H47.103V8.48036H49.3596V9.80779C49.7515 9.32738 50.2319 8.96708 50.8008 8.72688C51.3823 8.48668 52.0208 8.36658 52.7161 8.36658ZM52.4506 16.7104C53.3229 16.7104 54.0372 16.4196 54.5935 15.8381C55.1624 15.2566 55.4468 14.4917 55.4468 13.5435C55.4468 12.5954 55.1624 11.8305 54.5935 11.249C54.0372 10.6675 53.3229 10.3767 52.4506 10.3767C51.8817 10.3767 51.3697 10.5094 50.9146 10.7749C50.4595 11.0278 50.0992 11.3944 49.8337 11.8748C49.5682 12.3552 49.4355 12.9114 49.4355 13.5435C49.4355 14.1757 49.5682 14.7319 49.8337 15.2123C50.0992 15.6927 50.4595 16.0657 50.9146 16.3311C51.3697 16.584 51.8817 16.7104 52.4506 16.7104Z" fill="black"/>
<path d="M63.8421 8.36658C65.3338 8.36658 66.4716 8.72688 67.2554 9.44748C68.0519 10.1554 68.4501 11.23 68.4501 12.6712V18.6067H66.2125V17.3741C65.9217 17.8166 65.5045 18.1579 64.9609 18.3981C64.4299 18.6257 63.7852 18.7395 63.0266 18.7395C62.2681 18.7395 61.6044 18.6131 61.0355 18.3602C60.4666 18.0947 60.0241 17.7344 59.7081 17.2793C59.4046 16.8116 59.2529 16.2869 59.2529 15.7054C59.2529 14.7951 59.588 14.0682 60.258 13.5246C60.9407 12.9683 62.0089 12.6902 63.4628 12.6902H66.0797V12.5385C66.0797 11.8305 65.8648 11.2869 65.435 10.9077C65.0178 10.5284 64.392 10.3388 63.5576 10.3388C62.9887 10.3388 62.4261 10.4273 61.8699 10.6042C61.3263 10.7812 60.8648 11.0278 60.4856 11.3438L59.5564 9.61815C60.0873 9.2136 60.7258 8.90387 61.4716 8.68895C62.2175 8.47404 63.0077 8.36658 63.8421 8.36658ZM63.5197 17.0138C64.1139 17.0138 64.6385 16.8811 65.0936 16.6156C65.5614 16.3375 65.8901 15.9456 66.0797 15.4399V14.2642H63.6335C62.2681 14.2642 61.5854 14.713 61.5854 15.6105C61.5854 16.0404 61.7561 16.3817 62.0974 16.6346C62.4388 16.8874 62.9129 17.0138 63.5197 17.0138Z" fill="black"/>
<path d="M76.2308 18.7395C75.1815 18.7395 74.2397 18.5182 73.4053 18.0758C72.5709 17.6333 71.9199 17.0201 71.4521 16.2363C70.9843 15.4399 70.7505 14.5423 70.7505 13.5435C70.7505 12.5448 70.9843 11.6535 71.4521 10.8697C71.9199 10.0859 72.5646 9.47277 73.3864 9.03029C74.2207 8.58782 75.1689 8.36658 76.2308 8.36658C77.2296 8.36658 78.1019 8.56885 78.8478 8.9734C79.6063 9.37795 80.1752 9.95949 80.5545 10.718L78.734 11.78C78.4432 11.3122 78.0766 10.9645 77.6341 10.737C77.2043 10.4968 76.7302 10.3767 76.2119 10.3767C75.3269 10.3767 74.5937 10.6675 74.0121 11.249C73.4306 11.8179 73.1398 12.5827 73.1398 13.5435C73.1398 14.5044 73.4243 15.2755 73.9932 15.8571C74.5747 16.426 75.3143 16.7104 76.2119 16.7104C76.7302 16.7104 77.2043 16.5966 77.6341 16.3691C78.0766 16.1289 78.4432 15.7749 78.734 15.3071L80.5545 16.3691C80.1626 17.1276 79.5873 17.7155 78.8288 18.1327C78.0829 18.5372 77.2169 18.7395 76.2308 18.7395Z" fill="black"/>
<path d="M91.9749 13.6004C91.9749 13.7648 91.9623 13.9987 91.937 14.3021H83.9914C84.1305 15.048 84.4908 15.6421 85.0723 16.0846C85.6665 16.5145 86.3997 16.7294 87.2721 16.7294C88.3846 16.7294 89.3011 16.3628 90.0217 15.6295L91.2923 17.0897C90.8372 17.6333 90.2619 18.0442 89.5666 18.3223C88.8713 18.6004 88.0875 18.7395 87.2152 18.7395C86.1027 18.7395 85.1229 18.5182 84.2759 18.0758C83.4288 17.6333 82.7714 17.0201 82.3037 16.2363C81.8486 15.4399 81.621 14.5423 81.621 13.5435C81.621 12.5575 81.8422 11.6725 82.2847 10.8887C82.7398 10.0922 83.3656 9.47277 84.1621 9.03029C84.9585 8.58782 85.8561 8.36658 86.8549 8.36658C87.841 8.36658 88.7196 8.58782 89.4908 9.03029C90.2746 9.46013 90.8814 10.0733 91.3112 10.8697C91.7537 11.6535 91.9749 12.5638 91.9749 13.6004ZM86.8549 10.2629C86.0963 10.2629 85.4516 10.4905 84.9206 10.9456C84.4023 11.3881 84.0862 11.9822 83.9724 12.7281H89.7183C89.6172 11.9949 89.3074 11.4007 88.7891 10.9456C88.2708 10.4905 87.626 10.2629 86.8549 10.2629Z" fill="black"/>
<path d="M95.0104 18.7395C94.5806 18.7395 94.2139 18.5941 93.9105 18.3033C93.6071 17.9999 93.4554 17.6207 93.4554 17.1655C93.4554 16.6978 93.6008 16.3185 93.8916 16.0277C94.195 15.737 94.5679 15.5916 95.0104 15.5916C95.4529 15.5916 95.8195 15.737 96.1103 16.0277C96.4137 16.3185 96.5654 16.6978 96.5654 17.1655C96.5654 17.6207 96.4137 17.9999 96.1103 18.3033C95.8069 18.5941 95.4402 18.7395 95.0104 18.7395Z" fill="black"/>
<circle cx="5.53844" cy="5.53844" r="5.53844" fill="#0050EF"/>
<circle cx="18.4616" cy="5.53838" r="5.53844" fill="#0050EF"/>
<circle cx="5.53844" cy="18.4615" r="5.53844" fill="#0050EF"/>
<circle cx="18.4616" cy="18.4615" r="5.53844" fill="#0050EF"/>
</svg>
